<svg id="Group_234" data-name="Group 234" xmlns="http://www.w3.org/2000/svg" width="120" height="23" viewBox="0 0 920.68 175.076"><defs><style>.cls-1{fill:#cba150}</style></defs><path id="Path_3" data-name="Path 3" class="cls-1" d="M102.842 120.282v46.524H0V.3h47.748v119.982z" transform="translate(0 3.373)"/><path id="Path_4" data-name="Path 4" class="cls-1" d="M113.991 145.993H66.243l-6.122 20.813H8.7L61.345.3h55.094l52.645 166.506h-51.421zm-9.791-37.954L90.729 56.618l-13.468 51.421z" transform="translate(97.815 3.373)"/><path id="Path_5" data-name="Path 5" class="cls-1" d="M21.7 132.225l40.4-23.262c6.122 14.692 15.916 20.813 29.383 20.813 11.019 0 15.916-3.673 15.916-8.57 0-8.57-12.243-9.794-29.383-14.692-28.159-8.57-50.2-23.262-50.2-53.87C27.822 23.262 51.083 0 87.813 0c28.159 0 51.421 13.467 62.44 39.178L112.3 61.215c-4.9-12.243-13.467-17.14-23.262-17.14-8.57 0-12.243 3.673-12.243 8.57 0 7.346 8.57 9.794 26.935 15.916 25.71 7.346 52.645 17.14 52.645 52.645 0 34.281-25.71 53.87-64.888 53.87-37.955-1.224-62.441-18.364-69.787-42.851z" transform="translate(243.975)"/><path id="Path_6" data-name="Path 6" class="cls-1" d="M158.8 46.824h-39.174v119.982H71.878V46.824H32.7V.3h126.1z" transform="translate(367.649 3.373)"/><path id="Path_7" data-name="Path 7" class="cls-1" d="M91.948.3v166.506H44.2V.3z" transform="translate(496.945 3.373)"/><path id="Path_8" data-name="Path 8" class="cls-1" d="M49.5 86.926C49.5 37.954 86.229 0 136.426 0c30.608 0 58.767 15.916 73.459 40.4l-41.627 23.264c-4.9-11.019-17.14-17.14-31.832-17.14-23.262 0-39.178 17.14-39.178 40.4s15.916 40.4 39.178 40.4c14.692 0 25.71-7.346 31.832-18.365l41.627 23.262c-14.692 24.486-41.627 40.4-73.459 40.4C86.229 173.852 49.5 135.9 49.5 86.926z" transform="translate(556.533)"/><path id="Path_9" data-name="Path 9" class="cls-1" d="M152.875 166.806L111.248 95.8v71.01H63.5V.3h47.748v66.113L150.426.3H204.3l-48.977 80.8 51.421 85.7z" transform="translate(713.936 3.373)"/></svg>
